<svg width="186" height="206" viewBox="0 0 186 206" fill="none" xmlns="http://www.w3.org/2000/svg">
<g clip-path="url(#clip0_2056_1380)">
<path d="M75.59 205.09C74.66 203.68 76.64 200.89 78.01 198.97C79.69 196.61 80.62 196.19 84.61 191.89C85.61 190.82 86.42 189.94 87.35 188.83C90.19 185.44 91.91 182.47 92.5 181.42C93.35 179.91 95.1 176.8 96.36 172.73C97.59 168.77 97.78 165.05 98.13 157.76C98.52 149.55 98.04 149 98.94 146.01C99.87 142.92 101.33 140.62 104.25 136.03C105.57 133.96 107.58 130.82 110.69 127.01C113.61 123.44 117.81 118.89 123.57 114.29C123.97 113.98 124.6 113.6 125.34 113.65C126.58 113.73 127.4 114.96 127.83 115.58C128.83 117 130.42 118.91 133.14 121.29C131.19 116.9 131.29 113.52 131.53 111.72C131.66 110.74 131.74 110.2 132.09 109.55C133.46 107.05 136.66 107.02 141.58 105.61C143 105.2 144.99 104.4 148.98 102.8C153.65 100.92 157.1 99.19 159.14 98.17C164.31 95.57 168.92 93.24 174.25 89.33C176.82 87.44 180.36 84.59 184.2 80.61C184.62 83.15 185.11 86.88 185.18 91.42C185.29 98.15 184.45 103.19 183.21 110.34C181.97 117.5 181.42 121.2 179.77 126.31C178.26 131 176.67 134.44 175.75 136.41C174.13 139.89 172.77 142.78 170.27 146.18C168.32 148.84 166.99 150.65 164.57 152.25C161.13 154.52 157.61 154.97 155.61 155.06C156.02 155.1 157.5 155.31 158.5 156.54C159.24 157.45 159.34 158.44 159.39 158.98C159.61 161.46 158.23 163.55 157.39 164.68C154.51 168.55 150.71 170.71 148.73 171.86C139.77 177.07 142.17 176.55 135.85 180C133.9 181.06 127.86 184.3 119.41 187.48C114.98 189.15 111.11 190.34 108.08 191.18C107.34 191.05 105.35 190.64 105.04 189.48C104.75 188.38 106.09 187.2 106.97 186.37C109.47 184.02 111.19 180.93 113.63 178.52C115.62 176.57 115.01 176.89 123.03 167.19C126.35 163.17 131.68 156.73 137.62 149.95C146.95 139.32 148.02 139.01 152.84 132.97C158.2 126.24 161.95 120.26 164.29 116.24C161.77 117.69 158.14 120.01 154.22 123.41C150.13 126.97 147.69 130.01 145.54 132.59C141.5 137.43 144.06 133.95 129.31 150.2C122.04 158.22 117.4 163.33 111.57 170.08C99.68 183.85 93.91 190.89 92.32 193.36C90.22 196.61 87.21 199.17 84.77 202.17C83.91 203.23 82.45 205.04 79.99 205.69C78.65 206.04 76.32 206.24 75.57 205.1L75.59 205.09Z" fill="white"/>
<path d="M108.4 121.93C99.57 121.75 90.75 121.58 81.92 121.4C82 119.19 82.33 116.02 83.51 112.4C84.95 107.98 86.96 105.01 88.81 102.34C90.23 100.28 93.17 96.35 97.81 92.28C104.77 86.18 112.12 82.8 117.67 80.89C136.09 80.83 154.5 80.77 172.92 80.71C170.9 81.97 168.12 83.66 164.76 85.55C157.19 89.8 151.02 92.65 148.44 93.81C134.39 100.13 133.02 98.7 126.58 103.28C122.16 106.43 118.59 110.1 116.71 112.05C113.1 115.77 110.36 119.24 108.42 121.93H108.4Z" fill="white"/>
<path d="M90.26 162.71C89.1 163.3 86.76 163.92 75.08 157.55C65.06 152.09 60.05 149.36 54.13 143.73C50.67 140.44 43.62 133.62 38.8 122.48C32.95 108.97 33.35 97.16 33.64 91.81C33.89 87.17 34.81 78.39 38.97 68.3C42.59 59.52 47.02 53.71 48.22 52.18C55.7 42.62 64.01 37.57 68.26 35.02C71.99 32.79 75.32 31.22 77.82 30.16L153.27 29.86C152.05 32.11 150.43 34.67 148.26 37.3C144.53 41.83 140.56 44.88 137.48 46.86C137.43 46.86 87.08 47.32 87.08 47.32C87.04 47.32 82.68 47.65 80.55 48.08C76.62 48.88 74.15 51.33 69.92 55.52C68.34 57.08 65.46 59.97 62.63 64.33C55.82 74.81 54.45 85.92 54.13 89.23C53.48 95.92 51.92 112.05 62.94 126.12C73.81 140 89.65 142.59 93.61 143.12C95.4 152.65 94.39 160.6 90.27 162.7L90.26 162.71Z" fill="white"/>
<path d="M80.23 187.23C73.59 186.05 64.48 183.79 54.38 179.16C49.15 176.77 39.27 172.15 28.86 162.69C17.23 152.13 11.37 141.39 9.92 138.65C8.12 135.24 2.65 124.3 0.700004 108.84C-1.17 94.04 1.15 82.68 3.01 73.93C4.8 65.53 6.96 55.34 13.71 43.63C22.67 28.09 34.16 19.48 39.4 15.64C51.57 6.71 63.5 2.28 71.83 0C102.79 0.11 133.75 0.22 164.7 0.33C165.29 1.64 167.14 6.15 165.69 11.69C164.02 18.08 159.19 21.23 158.12 21.9H77.93C73.54 23.03 67.14 25.18 60.31 29.47C49.9 36.01 44.19 43.96 40.71 48.9C38.47 52.08 33.04 60.3 29.35 72.28C27.37 78.72 23.75 90.94 26.06 106.7C26.88 112.3 29.75 127.26 41.21 141.45C52.06 154.88 65.13 160.85 73.49 164.67C78.33 166.88 82.54 168.35 85.51 169.28C85.46 172.19 85.03 176.27 83.37 180.81C82.43 183.37 81.31 185.52 80.24 187.23H80.23Z" fill="white"/>
</g>
<defs>
<clipPath id="clip0_2056_1380">
<rect width="185.19" height="205.96" fill="white"/>
</clipPath>
</defs>
</svg>
