<svg width="20" height="20" viewBox="0 0 20 20" fill="none" xmlns="http://www.w3.org/2000/svg">
<path d="M17.593 5.332C18.3539 6.67999 18.7525 8.20211 18.75 9.75C18.75 10.528 18.651 11.283 18.466 12.003C17.9659 13.9343 16.8386 15.6448 15.261 16.866C13.6835 18.0872 11.745 18.7499 9.75 18.75M1.907 5.332C1.17 6.637 0.750004 8.145 0.750004 9.75C0.749327 10.51 0.844751 11.267 1.034 12.003C1.53408 13.9343 2.66141 15.6448 4.23898 16.866C5.81654 18.0872 7.75501 18.7499 9.75 18.75M9.75 18.75C12.235 18.75 14.25 14.72 14.25 9.75C14.25 4.78 12.235 0.750001 9.75 0.750001M9.75 18.75C7.265 18.75 5.25 14.72 5.25 9.75C5.25 4.78 7.265 0.750001 9.75 0.750001M18.466 12.003C15.7992 13.4814 12.7992 14.2548 9.75 14.25C6.588 14.25 3.617 13.435 1.034 12.003M9.75 0.750001C11.3462 0.749335 12.9139 1.17336 14.2922 1.97856C15.6705 2.78377 16.8097 3.94117 17.593 5.332M9.75 0.750001C8.15376 0.749335 6.58608 1.17336 5.20781 1.97856C3.82954 2.78377 2.69031 3.94117 1.907 5.332M17.593 5.332C15.4157 7.21793 12.6305 8.25415 9.75 8.25C6.752 8.25 4.01 7.15 1.907 5.332" stroke="black" stroke-width="1.5" stroke-linecap="round" stroke-linejoin="round"/>
</svg>
