<svg width="52" height="52" viewBox="0 0 52 52" fill="none" xmlns="http://www.w3.org/2000/svg">
<path d="M22.75 3.25H17.875C16.5821 3.25 15.3421 3.76361 14.4279 4.67785C13.5136 5.59209 13 6.83207 13 8.125V43.875C13 45.1679 13.5136 46.4079 14.4279 47.3221C15.3421 48.2364 16.5821 48.75 17.875 48.75H34.125C35.4179 48.75 36.6579 48.2364 37.5721 47.3221C38.4864 46.4079 39 45.1679 39 43.875V8.125C39 6.83207 38.4864 5.59209 37.5721 4.67785C36.6579 3.76361 35.4179 3.25 34.125 3.25H29.25M22.75 3.25V6.5H29.25V3.25M22.75 3.25H29.25M22.75 43.875H29.25" stroke="#008A1B" stroke-width="3" stroke-linecap="round" stroke-linejoin="round"/>
</svg>
